<svg xmlns="http://www.w3.org/2000/svg" width="350" height="350" viewBox="0 0 92.604 92.604"><path style="fill:#007bff;fill-opacity:1;fill-rule:nonzero;stroke:none" d="M.19 0C2.57-3.353 4.824-6.774 7.147-10.159a940.388 940.388 0 0 0 6.765-10.262c4.477-6.858 8.844-13.775 13.19-20.704l6.446-10.431 6.361-10.476c2.133-3.486 4.19-7.011 6.286-10.517a922.595 922.595 0 0 0 6.22-10.551l6.166-10.58 6.075-10.628c4.08-7.07 8-14.224 12.008-21.332l11.773-21.457 5.79-10.78c1.92-3.599 3.883-7.174 5.765-10.793l-16.183-.651c3.161 7.183 6.26 14.394 9.471 21.555l4.817 10.743a818.692 818.692 0 0 0 4.867 10.721l4.912 10.701 4.991 10.667c1.68 3.549 3.316 7.116 5.032 10.65l5.101 10.619 5.176 10.588a848.728 848.728 0 0 0 5.237 10.56c1.772 3.509 3.502 7.036 5.31 10.53l5.393 10.493 5.486 10.453c1.853 3.474 3.694 6.953 5.59 10.409a850.794 850.794 0 0 0 5.71 10.357c1.966 3.424 3.868 6.877 5.896 10.275-1.086-3.805-2.298-7.556-3.445-11.336a857.877 857.877 0 0 0-3.633-11.254c-1.22-3.748-2.493-7.472-3.754-11.202l-3.856-11.158-3.95-11.117c-1.307-3.71-2.69-7.387-4.033-11.081a849.524 849.524 0 0 0-4.105-11.051l-4.167-11.023-4.24-10.991c-1.4-3.671-2.876-7.307-4.312-10.962l-4.35-10.943-4.432-10.91a832.086 832.086 0 0 0-4.476-10.89l-4.526-10.868c-3.017-7.246-6.146-14.443-9.214-21.667l-7.258-17.093-8.925 16.442c-1.946 3.585-3.81 7.214-5.719 10.818l-5.694 10.831-11.194 21.765c-3.648 7.299-7.383 14.552-10.959 21.89l-5.408 10.982-5.318 11.031a917.331 917.331 0 0 0-5.263 11.06c-1.732 3.698-3.503 7.376-5.198 11.094l-5.123 11.134-5.037 11.18C15.9-37.84 12.611-30.35 9.433-22.801a933.922 933.922 0 0 0-4.719 11.349C3.21-7.633 1.635-3.851.19 0" transform="matrix(.35278 0 0 -.35278 31.797 18.945)"/><path style="fill:#007bff;fill-opacity:1;fill-rule:nonzero;stroke:none;stroke-width:.352777" d="M2.476 18.945c.84 1.183 1.635 2.39 2.455 3.584.802 1.203 1.6 2.408 2.386 3.62 1.58 2.42 3.12 4.86 4.653 7.304l2.274 3.68 2.244 3.695c.753 1.23 1.478 2.474 2.218 3.71a325.482 325.482 0 0 1 2.194 3.723l2.175 3.732 2.144 3.75c1.439 2.493 2.822 5.017 4.236 7.525l4.153 7.57 2.043 3.802c.677 1.27 1.37 2.531 2.033 3.808l-5.709.23c1.115-2.535 2.209-5.079 3.341-7.605l1.7-3.79a288.829 288.829 0 0 1 1.717-3.782l1.733-3.775 1.76-3.763c.592-1.252 1.17-2.51 1.775-3.757l1.8-3.746 1.826-3.735a299.467 299.467 0 0 1 1.847-3.726c.626-1.238 1.236-2.482 1.874-3.714l1.902-3.702 1.936-3.688c.654-1.225 1.303-2.453 1.971-3.672.661-1.222 1.336-2.439 2.015-3.654.694-1.207 1.365-2.426 2.08-3.624-.383 1.342-.81 2.665-1.215 3.999-.42 1.326-.844 2.651-1.282 3.97-.43 1.322-.88 2.636-1.324 3.952l-1.36 3.936-1.394 3.922c-.461 1.309-.95 2.606-1.423 3.909a299.688 299.688 0 0 1-1.448 3.899l-1.47 3.888-1.496 3.878c-.494 1.295-1.014 2.577-1.521 3.867l-1.535 3.86-1.563 3.849a293.557 293.557 0 0 1-1.58 3.842l-1.596 3.834c-1.064 2.556-2.168 5.095-3.25 7.643l-2.56 6.03-3.15-5.8c-.686-1.265-1.343-2.545-2.017-3.816l-2.009-3.821-3.949-7.678c-1.286-2.575-2.604-5.134-3.866-7.723l-1.907-3.874-1.877-3.891a323.598 323.598 0 0 1-1.856-3.902c-.611-1.305-1.236-2.602-1.834-3.914l-1.807-3.928-1.777-3.944a472.85 472.85 0 0 1-3.45-7.944 329.467 329.467 0 0 1-1.664-4.003c-.531-1.348-1.086-2.682-1.596-4.04"/><path style="fill:#231f20;fill-opacity:1;fill-rule:nonzero;stroke:none" d="M0 0c1.43 4.467 2.986 8.878 4.477 13.319 1.535 4.42 3.08 8.837 4.665 13.235l4.784 13.181 4.888 13.136 4.98 13.094c1.65 4.37 3.378 8.704 5.064 13.058 1.684 4.354 3.402 8.693 5.135 13.025l5.197 12.998 5.27 12.964c1.742 4.329 3.563 8.621 5.341 12.934l5.381 12.915 5.459 12.881a1139.39 1139.39 0 0 0 5.505 12.86l5.555 12.838c1.836 4.286 3.74 8.542 5.619 12.809l5.651 12.796 7.578 17.159 8.645-16.756c2.189-4.243 4.299-8.526 6.453-12.786l6.43-12.799 12.662-25.697 6.238-12.896c2.089-4.293 4.152-8.6 6.189-12.92l6.142-12.945 6.05-12.991c2.028-4.325 4.015-8.67 5.995-13.019 1.976-4.351 3.99-8.683 5.929-13.052l5.853-13.091 5.767-13.135c3.797-8.781 7.571-17.573 11.235-26.421a1286.06 1286.06 0 0 0 5.446-13.297C191.33 8.93 193.147 4.498 194.834 0c-2.632 4.018-5.135 8.102-7.707 12.151a1308.061 1308.061 0 0 0-7.51 12.25c-4.975 8.184-9.838 16.423-14.679 24.675l-7.19 12.413-7.104 12.456c-2.38 4.146-4.685 8.331-7.028 12.496-2.339 4.166-4.67 8.337-6.962 12.528l-6.907 12.557-6.815 12.603a1150.393 1150.393 0 0 0-6.767 12.627l-6.72 12.651-13.251 25.399-6.527 12.749c-2.165 4.255-4.374 8.488-6.504 12.761l16.223.404-5.747-12.753c-1.92-4.248-3.815-8.508-5.777-12.738l-5.843-12.71a1147.404 1147.404 0 0 0-5.893-12.687l-5.938-12.667-6.016-12.632c-2.022-4.204-3.999-8.427-6.057-12.614l-6.126-12.583-6.201-12.55a1217.664 1217.664 0 0 0-6.262-12.523c-2.114-4.162-4.185-8.344-6.334-12.49l-6.417-12.454-6.51-12.412-6.613-12.365A1176.791 1176.791 0 0 0 6.92 12.229C4.612 8.153 2.369 4.049 0 0" transform="matrix(.35278 0 0 -.35278 15.526 85.583)"/></svg>