<?xml version="1.0" encoding="UTF-8" standalone="no"?>
<svg
   xmlns:dc="http://purl.org/dc/elements/1.1/"
   xmlns:cc="http://creativecommons.org/ns#"
   xmlns:rdf="http://www.w3.org/1999/02/22-rdf-syntax-ns#"
   xmlns:svg="http://www.w3.org/2000/svg"
   xmlns="http://www.w3.org/2000/svg"
   xmlns:sodipodi="http://sodipodi.sourceforge.net/DTD/sodipodi-0.dtd"
   xmlns:inkscape="http://www.inkscape.org/namespaces/inkscape"
   width="350"
   height="350"
   viewBox="0 0 92.604166 92.604166"
   version="1.1"
   id="svg1454"
   inkscape:version="1.0 (4035a4fb49, 2020-05-01)"
   sodipodi:docname="vector.svg">
  <defs
     id="defs1448" />
  <sodipodi:namedview
     id="base"
     pagecolor="#ffffff"
     bordercolor="#666666"
     borderopacity="1.0"
     inkscape:pageopacity="0.0"
     inkscape:pageshadow="2"
     inkscape:zoom="0.98994949"
     inkscape:cx="3.0044532"
     inkscape:cy="190.76955"
     inkscape:document-units="mm"
     inkscape:current-layer="g20"
     inkscape:document-rotation="0"
     showgrid="false"
     units="px"
     inkscape:window-width="1536"
     inkscape:window-height="801"
     inkscape:window-x="-8"
     inkscape:window-y="1072"
     inkscape:window-maximized="1" />
  <metadata
     id="metadata1451">
    <rdf:RDF>
      <cc:Work
         rdf:about="">
        <dc:format>image/svg+xml</dc:format>
        <dc:type
           rdf:resource="http://purl.org/dc/dcmitype/StillImage" />
        <dc:title />
      </cc:Work>
    </rdf:RDF>
  </metadata>
  <g
     inkscape:label="Layer 1"
     inkscape:groupmode="layer"
     id="layer1">
    <g
       transform="matrix(0.35277777,0,0,-0.35277777,31.796996,18.944692)"
       id="g20">
      <path
         id="path22"
         style="fill:#007bff;fill-opacity:1;fill-rule:nonzero;stroke:none"
         d="M 0.18940363,-3.3070866e-7 C 2.5714036,-3.3530003 4.8254036,-6.7739996 7.1484036,-10.159 c 2.274,-3.41 4.5380004,-6.826 6.7650004,-10.262 4.477,-6.858 8.844,-13.775 13.189,-20.704 l 6.447,-10.431 6.361,-10.476 c 2.133,-3.486 4.19,-7.011 6.286,-10.517 2.092,-3.506 4.175,-7.018 6.22,-10.551 l 6.166,-10.58 6.075,-10.628 c 4.08,-7.07 8,-14.224 12.008,-21.332 l 11.773,-21.457 5.79,-10.78 c 1.919,-3.599 3.883,-7.174 5.765,-10.793 l -16.183,-0.651 c 3.161,7.183 6.26,14.394 9.471,21.555 l 4.817,10.743 c 1.594,3.586 3.220996,7.157 4.866996,10.721 l 4.912,10.701 4.991,10.667 c 1.679,3.549 3.316,7.116 5.032,10.65 l 5.101,10.619 5.176,10.588 c 1.723,3.53 3.464,7.052 5.237,10.56 1.772,3.509 3.502,7.036 5.31,10.53 l 5.393,10.493 5.486,10.453 c 1.853,3.474 3.694,6.953 5.589,10.409 1.873,3.465 3.786,6.913 5.71,10.357 1.967,3.4240004 3.869,6.8769997 5.897,10.27499966929137 C 165.7134,-3.8050003 164.5014,-7.5559996 163.3544,-11.336 c -1.191,-3.76 -2.392,-7.516 -3.633,-11.254 -1.22,-3.748 -2.493,-7.472 -3.754,-11.202 l -3.856,-11.158 -3.95,-11.117 c -1.307,-3.71 -2.69,-7.387 -4.033,-11.081 -1.341,-3.696 -2.714,-7.377 -4.105,-11.051 l -4.167,-11.023 -4.241,-10.991 c -1.399,-3.671 -2.875,-7.307 -4.311,-10.962 l -4.351,-10.943 -4.431,-10.91 c -1.469,-3.64 -2.956,-7.272 -4.476,-10.89 l -4.526,-10.868 c -3.017,-7.246 -6.146,-14.443 -9.214,-21.667 l -7.257996,-17.093 -8.925,16.442 c -1.946,3.585 -3.81,7.214 -5.719,10.818 l -5.694,10.831 -11.194,21.765 c -3.648,7.299 -7.383,14.552 -10.959,21.89 l -5.408,10.982 -5.318,11.031 c -1.783,3.671 -3.528,7.363 -5.263,11.06 -1.732,3.698 -3.503,7.376 -5.198,11.094 l -5.123,11.134 -5.037,11.18 c -3.311,7.479 -6.599,14.969 -9.7770004,22.518 -1.602,3.768 -3.165,7.556 -4.719,11.349 -1.505,3.8190004 -3.079,7.6009997 -4.52499997,11.45199966929134" />
    </g>
    <path
       id="path26"
       style="fill:#007bff;fill-opacity:1;fill-rule:nonzero;stroke:none;stroke-width:0.352777"
       d="m 2.4756606,18.944692 c 0.8403167,1.182864 1.6354775,2.389717 2.4549805,3.58387 0.8022171,1.202972 1.6009061,2.408061 2.3865421,3.620205 1.5793859,2.41935 3.1199658,4.859514 4.6527858,7.303912 l 2.274358,3.679825 2.24402,3.6957 c 0.752475,1.229783 1.478139,2.473325 2.217561,3.710162 0.738011,1.236839 1.472847,2.475796 2.194277,3.722158 l 2.175228,3.73239 2.143125,3.749323 c 1.439333,2.494137 2.822222,5.01791 4.236156,7.525454 l 4.153252,7.569552 2.042584,3.802946 c 0.676981,1.269645 1.369835,2.530827 2.033764,3.807529 l -5.709004,0.229658 c 1.115131,-2.534002 2.20839,-5.077883 3.341158,-7.604125 l 1.699332,-3.789892 c 0.562326,-1.26506 1.136298,-2.524829 1.716968,-3.782129 l 1.732846,-3.775075 1.760712,-3.763081 c 0.591963,-1.252008 1.169813,-2.510367 1.77518,-3.757083 l 1.799519,-3.746146 1.825976,-3.735213 c 0.607838,-1.245303 1.222024,-2.487787 1.847499,-3.725333 0.625123,-1.237895 1.235426,-2.482144 1.87325,-3.71475 l 1.902531,-3.701695 1.935337,-3.68794 c 0.65405,-1.225197 1.30316,-2.452511 1.971675,-3.671711 0.660752,-1.222375 1.335617,-2.438753 2.01436,-3.653719 0.693915,-1.207911 1.364898,-2.426053 2.080332,-3.624792 -0.383117,1.34232 -0.810684,2.665589 -1.215319,3.999089 -0.420158,1.326444 -0.843846,2.651478 -1.281641,3.970161 -0.43039,1.322211 -0.879475,2.635955 -1.323975,3.951817 l -1.360665,3.936295 -1.393471,3.921828 c -0.461081,1.308807 -0.948973,2.605972 -1.422754,3.909132 -0.473075,1.303866 -0.957437,2.602441 -1.448152,3.898548 l -1.470025,3.888668 -1.496132,3.877382 c -0.493535,1.295045 -1.014235,2.577745 -1.520825,3.86715 l -1.534935,3.860445 -1.563158,3.848807 c -0.518232,1.28411 -1.04281,2.5654 -1.579033,3.84175 l -1.596674,3.833987 c -1.064328,2.556229 -2.16817,5.095171 -3.250493,7.643638 l -2.56046,6.030029 -3.148542,-5.800371 c -0.686506,-1.264708 -1.344083,-2.54494 -2.017538,-3.81635 L 28.059458,73.785759 24.110463,66.107551 C 22.82353,63.532626 21.505905,60.97393 20.244372,58.385247 l -1.907823,-3.874206 -1.876072,-3.891492 c -0.629003,-1.295045 -1.2446,-2.597502 -1.856669,-3.90172 -0.611011,-1.304574 -1.235781,-2.60209 -1.833739,-3.913717 L 10.962788,38.876282 9.1858471,34.932229 C 8.0177991,32.293803 6.8578662,29.651497 5.7367382,26.988378 5.1715881,25.659112 4.6201971,24.322789 4.0719801,22.984703 3.5410495,21.637445 2.9857773,20.303239 2.4756606,18.944692" />
    <g
       transform="matrix(0.35277777,0,0,-0.35277777,15.525616,85.582961)"
       id="g28">
      <path
         id="path30"
         style="fill:#231f20;fill-opacity:1;fill-rule:nonzero;stroke:none"
         d="m 0,0 c 1.43,4.467 2.986,8.878 4.477,13.319 1.535,4.42 3.08,8.837 4.665,13.235 l 4.784,13.181 4.888,13.136 4.98,13.094 c 1.65,4.37 3.378,8.704 5.064,13.058 1.684,4.354 3.402,8.693 5.135,13.025 l 5.197,12.998 5.27,12.964 c 1.742,4.329 3.563,8.621 5.341,12.934 l 5.381,12.915 5.459,12.881 c 1.81,4.298 3.643,8.586 5.505,12.86 l 5.555,12.838 c 1.836,4.286 3.74,8.542 5.619,12.809 l 5.651,12.796 7.578,17.159 8.645,-16.756 c 2.189,-4.243 4.299,-8.526 6.453,-12.786 l 6.43,-12.799 12.662,-25.697 6.238,-12.896 c 2.089,-4.293 4.152,-8.6 6.189,-12.92 l 6.142,-12.945 6.05,-12.991 c 2.028,-4.325 4.015,-8.67 5.995,-13.019 1.976,-4.351 3.99,-8.683 5.929,-13.052 l 5.853,-13.091 5.767,-13.135 c 3.797,-8.781 7.571,-17.573 11.235,-26.421 1.844,-4.418 3.65,-8.855 5.446,-13.297 1.747,-4.467 3.564,-8.899 5.251,-13.397 -2.632,4.018 -5.135,8.102 -7.707,12.151 -2.522,4.074 -5.035,8.152 -7.51,12.25 -4.975,8.184 -9.838,16.423 -14.679,24.675 l -7.19,12.413 -7.104,12.456 c -2.38,4.146 -4.685,8.331 -7.028,12.496 -2.339,4.166 -4.67,8.337 -6.962,12.528 l -6.907,12.557 -6.815,12.603 c -2.282,4.196 -4.538,8.404 -6.767,12.627 l -6.72,12.651 -13.251,25.399 -6.527,12.749 c -2.165,4.255 -4.374,8.488 -6.504,12.761 l 16.223,0.404 -5.747,-12.753 c -1.92,-4.248 -3.815,-8.508 -5.777,-12.738 l -5.843,-12.71 c -1.937,-4.241 -3.904,-8.469 -5.893,-12.687 l -5.938,-12.667 -6.016,-12.632 c -2.022,-4.204 -3.999,-8.427 -6.057,-12.614 L 51.989,99.336 45.788,86.786 C 43.722,82.602 41.641,78.425 39.526,74.263 37.412,70.101 35.341,65.919 33.192,61.773 L 26.775,49.319 20.265,36.907 13.652,24.542 C 11.439,20.424 9.184,16.324 6.92,12.229 4.612,8.153 2.369,4.049 0,0" />
    </g>
  </g>
</svg>
